<svg xmlns="http://www.w3.org/2000/svg" xmlns:xlink="http://www.w3.org/1999/xlink" fill="none" version="1.1" width="400" height="400" viewBox="0 0 400 400"><clipPath id="master_svg0_1_8"><rect x="0" y="0" width="400" height="400" rx="0"/></clipPath><g clip-path="url(#master_svg0_1_8)"><g><path d="M233.00203051757813,290.55498474121094L232.98503051757814,224.00498474121093L34.21883051757813,224.00498474121093C8.749930517578125,159.01698474121093,37.713830517578124,85.38488474121094,100.63373051757813,55.16508474121094C163.55403051757813,24.945384741210937,239.13103051757813,48.36717474121094,273.9350305175781,108.87188474121093C327.0100305175781,98.66348474121094,377.3520305175781,136.35568474121095,382.49903051757815,190.15798474121092C387.6470305175781,243.95998474121095,345.36703051757814,290.51398474121095,291.31903051757814,290.55498474121094L233.00203051757813,290.55498474121094L233.00203051757813,290.55498474121094ZM99.65213051757813,323.88898474121095L266.3190305175781,323.88898474121095L266.3190305175781,357.2219847412109L99.65213051757813,357.2219847412109L99.65213051757813,323.88898474121095ZM32.985500517578124,257.2219847412109L199.6520305175781,257.2219847412109L199.6520305175781,290.55498474121094L32.985500517578124,290.55498474121094L32.985500517578124,257.2219847412109Z" fill="#FFFFFF" fill-opacity="1"/></g></g></svg>